# xmcd
#
# Track frame offsets: 
#        150
#        10638
#        23745
#        36371
#        50865
#        64227
#        78771
#        90317
#        110831
#        128404
#        144050
#        157757
#        170210
#
# Disc length: 2430 seconds
#
# Revision: 0
# Processed by: cddbd v1.5.2PL0 Copyright (c) Steve Scherf et al.
# Submitted via: ExactAudioCopyFreeDBPlugin 1.0
#
DISCID=9a097c0d
DTITLE=Andres Roots - Winter
DYEAR=2016
DGENRE=Blues
TTITLE0=Karlova Blues
TTITLE1=Winter Blues
TTITLE2=Thanks for Bringing Me Down
TTITLE3=Tea For Alex
TTITLE4=All In The Cards
TTITLE5=Morganfield Blues
TTITLE6=Get Me Back
TTITLE7=Spider In My Bed
TTITLE8=Spanish Run
TTITLE9=Solitaire
TTITLE10=Someplace Nice
TTITLE11=Alligator Blues
TTITLE12=Silver Lining
EXTD=
EXTT0=
EXTT1=
EXTT2=
EXTT3=
EXTT4=
EXTT5=
EXTT6=
EXTT7=
EXTT8=
EXTT9=
EXTT10=
EXTT11=
EXTT12=
PLAYORDER=
